<svg width="565" height="133" viewBox="0 0 565 133" fill="none" xmlns="http://www.w3.org/2000/svg">
<g clip-path="url(#clip0_45_5)">
<path d="M44.8875 73.9258L60.5704 58.2429L21.6679 19.3958C13.0229 28.0408 13.0229 42.0613 21.6679 50.7617L44.8875 73.9258ZM82.46 63.8954C90.9387 67.83 102.853 65.0592 111.665 56.2479C122.249 45.6633 124.3 30.4792 116.153 22.3329C108.062 14.2421 92.8783 16.2371 82.2383 26.8217C73.4271 35.6329 70.6562 47.5475 74.5908 56.0263L20.5041 110.113L28.3179 117.927L66.5 79.8554L104.627 117.982L112.44 110.168L74.3137 72.0417L82.46 63.8954Z" fill="#D4764E"/>
</g>
<path d="M165.013 96.2521C156.975 96.2521 150.796 94.0191 146.478 89.553C142.159 85.0212 140 78.322 140 69.4555C140 65.1208 140.531 60.9174 141.594 56.8453C142.724 52.7076 144.318 48.8655 146.378 45.3189C148.504 41.7722 151.095 38.6525 154.151 35.9597C157.274 33.2013 160.828 31.0667 164.814 29.5561C168.867 28.0456 173.351 27.2903 178.268 27.2903C182.719 27.2903 186.34 28.0127 189.13 29.4576C191.92 30.9025 193.98 32.8072 195.309 35.1716C196.637 37.536 197.302 40.0646 197.302 42.7574C197.302 45.5159 196.671 48.143 195.408 50.6388C194.146 53.1345 192.385 55.1705 190.126 56.7468C187.868 58.2574 185.277 59.0127 182.353 59.0127C179.164 59.0127 176.573 58.2246 174.58 56.6483C172.654 55.0064 171.69 53.0032 171.69 50.6388C171.69 49.8506 171.79 49.1282 171.989 48.4714C172.321 48.5371 172.654 48.6028 172.986 48.6684C173.318 48.7341 173.65 48.7669 173.982 48.7669C175.776 48.7013 177.271 48.2744 178.467 47.4862C179.663 46.6981 180.56 45.6801 181.158 44.4322C181.822 43.1843 182.154 41.9036 182.154 40.59C182.154 38.8167 181.623 37.339 180.56 36.1568C179.497 34.9089 177.935 34.285 175.876 34.285C173.75 34.285 171.79 34.9089 169.996 36.1568C168.269 37.339 166.708 39.0138 165.312 41.1811C163.984 43.3485 162.854 45.8114 161.924 48.5699C160.994 51.2627 160.263 54.1525 159.732 57.2394C159.267 60.2606 159.034 63.2489 159.034 66.2044C159.034 69.8167 159.433 72.8708 160.23 75.3665C161.027 77.8623 162.29 79.7341 164.017 80.982C165.811 82.2299 168.169 82.8538 171.092 82.8538C172.687 82.8538 174.215 82.5583 175.677 81.9672C177.138 81.3761 178.533 80.5879 179.862 79.6028C181.191 78.5519 182.353 77.3369 183.35 75.9576C184.346 74.5127 185.177 72.9693 185.841 71.3273C187.702 71.9184 189.097 72.9364 190.027 74.3814C191.023 75.7606 191.522 77.3369 191.522 79.1102C191.522 81.0148 190.99 82.9852 189.927 85.0212C188.864 87.0572 187.236 88.929 185.044 90.6367C182.852 92.3443 180.061 93.6907 176.673 94.6758C173.351 95.7267 169.465 96.2521 165.013 96.2521Z" fill="#2D3B2D"/>
<path d="M236.277 96.2521C233.221 96.2521 230.729 95.4968 228.803 93.9862C226.876 92.41 225.913 90.0127 225.913 86.7945C225.913 85.3496 226.112 83.5434 226.511 81.3761C226.976 79.2087 227.474 76.91 228.006 74.4799C228.603 72.0498 229.168 69.6197 229.7 67.1896C230.298 64.7595 230.796 62.4936 231.194 60.3919C231.593 58.2246 231.792 56.4184 231.792 54.9735C231.792 53.4629 231.493 52.215 230.896 51.2299C230.298 50.179 229.235 49.6536 227.707 49.6536C225.713 49.6536 224.053 50.4746 222.724 52.1165C221.395 53.7585 220.299 55.7617 219.435 58.1261C218.638 60.4905 218.007 62.7892 217.542 65.0222L211.861 94.2818L194.023 96.0551L203.092 50.4417L218.738 49.5551C220.731 46.9936 223.189 45.1218 226.112 43.9396C229.035 42.6917 232.191 42.0678 235.579 42.0678C239.698 42.0678 242.987 42.9873 245.445 44.8263C247.903 46.6653 249.132 49.6208 249.132 53.6928C249.132 55.4004 248.933 57.3708 248.534 59.6038C248.136 61.7712 247.638 64.0371 247.04 66.4015C246.508 68.7659 245.977 71.0975 245.445 73.3962C244.914 75.6292 244.449 77.7309 244.05 79.7013C243.651 81.6059 243.452 83.215 243.452 84.5286C243.452 85.9078 243.751 87.0572 244.349 87.9767C245.013 88.8962 246.143 89.4216 247.737 89.553C247.006 91.8517 245.512 93.5265 243.253 94.5773C241.06 95.6938 238.735 96.2521 236.277 96.2521ZM218.239 52.9047L202.892 51.5254C203.49 48.7669 204.022 45.9428 204.487 43.053C205.018 40.1631 205.45 37.3061 205.782 34.482C206.115 31.6578 206.347 29.0964 206.48 26.7977C206.546 25.9439 206.546 25.1557 206.48 24.4333C206.48 23.7108 206.447 23.0212 206.38 22.3644C207.908 21.5106 209.436 20.9195 210.965 20.5911C212.559 20.197 214.054 20 215.449 20C217.907 20 220 20.6239 221.727 21.8718C223.455 23.1197 224.285 25.2542 224.219 28.2754C224.219 29.3263 224.119 30.5413 223.92 31.9205C223.72 33.2998 223.421 34.8104 223.023 36.4523C222.624 38.0943 222.159 39.8347 221.628 41.6737C221.163 43.447 220.631 45.3189 220.033 47.2892C219.502 49.1939 218.904 51.0657 218.239 52.9047Z" fill="#2D3B2D"/>
<path d="M272.64 96.2521C268.587 96.2521 265 95.5297 261.877 94.0847C258.821 92.6398 256.43 90.4396 254.702 87.4841C252.975 84.4629 252.111 80.6208 252.111 75.9576C252.111 71.6886 252.709 67.5508 253.905 63.5445C255.167 59.5381 257.061 55.9258 259.585 52.7076C262.176 49.4237 265.465 46.8294 269.451 44.9248C273.437 43.0201 278.154 42.0678 283.602 42.0678C286.459 42.0678 289.083 42.429 291.475 43.1515C293.933 43.8083 295.926 45.0233 297.454 46.7966C298.982 48.5042 299.746 50.9672 299.746 54.1854C299.746 57.535 298.75 60.4248 296.757 62.8549C294.83 65.285 291.973 67.1896 288.186 68.5689C284.466 69.9481 279.915 70.7691 274.534 71.0318C273.67 71.0318 272.773 71.0318 271.843 71.0318C270.979 71.0318 270.149 71.0318 269.351 71.0318C269.285 71.8199 269.219 72.6409 269.152 73.4947C269.086 74.2828 269.053 75.0053 269.053 75.6621C269.053 78.5519 269.684 80.8178 270.946 82.4597C272.208 84.036 274.401 84.8241 277.523 84.8241C280.114 84.8241 282.672 84.2659 285.197 83.1494C287.721 82.0328 289.615 80.3909 290.877 78.2235C291.807 78.7489 292.438 79.4057 292.77 80.1939C293.169 80.9163 293.368 81.803 293.368 82.8538C293.368 85.4809 292.405 87.8125 290.478 89.8485C288.618 91.8845 286.094 93.4608 282.905 94.5773C279.782 95.6938 276.361 96.2521 272.64 96.2521ZM269.949 66.5985C272.275 66.5985 274.367 66.2701 276.228 65.6133C278.154 64.9566 279.815 64.0371 281.21 62.8549C282.606 61.607 283.669 60.1292 284.399 58.4216C285.13 56.714 285.496 54.8093 285.496 52.7076C285.496 51 285.163 49.6864 284.499 48.7669C283.901 47.7818 282.871 47.2892 281.41 47.2892C280.147 47.2892 278.918 47.7161 277.722 48.5699C276.527 49.4237 275.43 50.6716 274.434 52.3136C273.504 53.9555 272.64 55.9915 271.843 58.4216C271.112 60.786 270.481 63.5116 269.949 66.5985Z" fill="#2D3B2D"/>
<path d="M298.861 113C296.137 113 293.878 112.54 292.085 111.621C290.291 110.767 289.062 109.519 288.397 107.877C290.324 107.22 291.985 106.399 293.38 105.414C294.709 104.429 295.905 103.017 296.968 101.178C297.964 99.339 298.894 96.8104 299.758 93.5922C300.688 90.3739 301.651 86.2362 302.648 81.179L308.926 48.4714H301.95L302.847 44.0381H309.823L311.418 37.4375C312.613 32.84 314.773 29.3591 317.895 26.9947C321.084 24.5646 324.506 23.3496 328.16 23.3496C331.016 23.3496 333.342 23.7436 335.135 24.5318C336.996 25.2542 338.358 26.2066 339.221 27.3888C340.085 28.571 340.517 29.8517 340.517 31.2309C340.517 33.5953 339.819 35.3686 338.424 36.5508C337.095 37.733 335.434 38.3242 333.441 38.3242C332.578 38.3242 331.681 38.2585 330.751 38.1271C329.887 37.9301 329.023 37.6017 328.16 37.1419C328.492 36.2225 328.791 35.2044 329.057 34.0879C329.322 32.9714 329.455 31.9205 329.455 30.9354C329.455 29.8845 329.322 29.0964 329.057 28.571C328.791 27.9799 328.326 27.6843 327.661 27.6843C326.665 27.6843 325.868 28.4068 325.27 29.8517C324.738 31.2966 324.406 33.1356 324.273 35.3686C324.273 36.2225 324.306 37.2076 324.373 38.3242C324.506 39.4407 324.738 40.4915 325.07 41.4767C325.469 42.4619 326 43.3157 326.665 44.0381H336.331L335.733 48.4714H326.366L319.789 82.3612C318.393 89.6515 316.832 95.5297 315.105 99.9958C313.377 104.528 311.218 107.811 308.627 109.847C306.036 111.949 302.781 113 298.861 113Z" fill="#2D3B2D"/>
<path d="M380.377 94.2818L373.9 48.0773L373.501 47.1907L369.316 29.2606H387.353L392.535 68.3718H392.834L412.367 29.3591H430.305L412.367 48.1758L389.645 94.2818H380.377ZM348.488 96.7447C346.428 96.7447 344.767 96.0879 343.505 94.7744C342.309 93.5265 341.744 92.1144 341.811 90.5381C341.811 89.6186 342.01 88.7648 342.409 87.9767C344.734 87.7797 346.86 86.8273 348.787 85.1197C350.713 83.4121 352.507 81.1133 354.168 78.2235C355.829 75.268 357.357 71.9184 358.752 68.1748C360.147 64.3655 361.443 60.3263 362.639 56.0572C363.835 51.7225 364.964 47.2892 366.027 42.7574C367.09 38.16 368.087 33.661 369.017 29.2606L375.195 41.3782C373.734 50.4417 372.172 58.1917 370.511 64.6282C368.851 71.0646 367.123 76.3845 365.329 80.5879C363.536 84.7256 361.709 87.9767 359.848 90.3411C357.988 92.6398 356.095 94.2818 354.168 95.2669C352.241 96.2521 350.348 96.7447 348.488 96.7447ZM345.299 59.2097C342.508 59.2097 340.183 58.6186 338.323 57.4364C336.529 56.2542 335.2 54.678 334.337 52.7076C333.473 50.6716 333.074 48.4714 333.141 46.107C333.207 43.7426 333.739 41.411 334.735 39.1123C335.732 36.7479 337.227 34.6133 339.22 32.7087C341.213 30.804 343.704 29.2606 346.694 28.0784C349.684 26.8962 353.238 26.3051 357.357 26.3051C361.144 26.3051 364.599 26.5678 367.721 27.0932C370.844 27.553 373.966 28.0127 377.089 28.4725C380.211 28.9322 383.6 29.1949 387.254 29.2606L379.48 38.3242L368.02 34.285L367.522 33.3983C365.662 32.8072 363.835 32.5116 362.041 32.5116C358.52 32.5116 355.596 33.661 353.271 35.9597C350.946 38.2585 349.717 41.5095 349.584 45.7129C349.584 47.6176 349.717 49.4237 349.983 51.1314C350.315 52.7733 350.979 54.6123 351.976 56.6483C350.979 57.5678 349.85 58.2246 348.587 58.6186C347.392 59.0127 346.295 59.2097 345.299 59.2097ZM419.641 109.946C417.914 109.946 416.286 109.618 414.758 108.961C413.23 108.304 411.902 107.155 410.772 105.513C409.709 103.871 408.879 101.506 408.281 98.4195C407.749 95.3983 407.55 91.4905 407.683 86.696C407.816 83.4121 408.081 79.6028 408.48 75.268C408.945 70.9333 409.643 66.0403 410.573 60.589C411.503 55.1377 412.732 49.161 414.26 42.6589L413.861 40.2945L412.367 29.3591H430.504C429.972 33.2341 429.408 37.3061 428.81 41.5752C428.212 45.8443 427.614 50.1133 427.016 54.3824C426.484 58.6515 426.019 62.822 425.621 66.8941C425.289 70.9661 425.089 74.8083 425.023 78.4205C424.823 84.4629 425.122 89.6186 425.92 93.8877C426.717 98.1568 428.245 101.014 430.504 102.459C430.371 103.51 429.773 104.593 428.71 105.71C427.713 106.892 426.418 107.877 424.823 108.665C423.229 109.519 421.502 109.946 419.641 109.946Z" fill="#2D3B2D"/>
<path d="M446.779 96.2521C443.125 96.2521 440.136 95.464 437.811 93.8877C435.485 92.2458 433.758 90.0127 432.628 87.1886C431.566 84.2987 431.034 80.9163 431.034 77.0413C431.034 72.1155 431.765 67.5508 433.226 63.3475C434.754 59.0784 436.88 55.3676 439.604 52.215C442.328 48.9968 445.484 46.5011 449.072 44.7278C452.659 42.9544 456.579 42.0678 460.831 42.0678C464.219 42.0678 467.707 42.7246 471.295 44.0381L485.545 42.2648L478.171 80.6864C478.104 81.2775 478.005 81.9672 477.872 82.7553C477.739 83.5434 477.673 84.233 477.673 84.8241C477.673 86.0064 478.005 87.09 478.669 88.0752C479.4 88.9947 480.529 89.4873 482.057 89.553C481.526 91.1292 480.662 92.41 479.466 93.3951C478.27 94.3803 476.875 95.1028 475.281 95.5625C473.753 96.0222 472.192 96.2521 470.597 96.2521C468.538 96.2521 466.644 95.7924 464.917 94.8729C463.189 93.9534 462.027 92.5413 461.429 90.6367C459.701 92.3443 457.609 93.6907 455.151 94.6758C452.692 95.7267 449.902 96.2521 446.779 96.2521ZM452.559 90.0456C454.553 90.0456 456.147 89.3559 457.343 87.9767C458.605 86.5318 459.602 84.7913 460.333 82.7553C461.063 80.7193 461.595 78.7489 461.927 76.8443L466.711 50.0477C465.714 49.3252 464.684 48.7998 463.621 48.4714C462.625 48.143 461.728 47.9788 460.931 47.9788C459.004 47.9788 457.31 48.7341 455.848 50.2447C454.386 51.7553 453.124 53.7913 452.061 56.3528C451.065 58.8485 450.234 61.607 449.57 64.6282C448.972 67.5837 448.54 70.6049 448.274 73.6917C448.009 76.7129 447.876 79.4714 447.876 81.9672C447.876 84.0032 448.175 85.875 448.773 87.5826C449.371 89.2246 450.633 90.0456 452.559 90.0456Z" fill="#2D3B2D"/>
<path d="M499.801 96.2521C496.878 96.2521 494.354 95.464 492.228 93.8877C490.168 92.3114 489.138 90.0127 489.138 86.9915C489.138 85.678 489.304 83.9703 489.637 81.8686C489.969 79.7013 490.334 77.4354 490.733 75.071C491.198 72.7066 491.663 70.4407 492.128 68.2733C492.593 66.1059 492.925 64.3326 493.125 62.9534L496.114 48.4714H489.936L490.334 45.5159C494.055 44.3337 497.775 42.7246 501.496 40.6886C505.282 38.6525 508.87 36.2881 512.258 33.5953H516.643L514.351 44.0381H522.124L521.227 48.4714H513.554L507.475 79.4057C507.342 80.3252 507.209 81.2119 507.076 82.0657C506.943 82.8538 506.844 83.6419 506.777 84.4301C506.777 86.6631 507.309 88.1409 508.372 88.8633C509.435 89.5201 510.963 89.6186 512.956 89.1589C512.092 91.1292 510.963 92.6398 509.568 93.6907C508.172 94.6758 506.611 95.3326 504.884 95.661C503.223 96.0551 501.529 96.2521 499.801 96.2521Z" fill="#2D3B2D"/>
<path d="M537.894 96.2521C533.841 96.2521 530.254 95.5297 527.131 94.0847C524.075 92.6398 521.683 90.4396 519.956 87.4841C518.229 84.4629 517.365 80.6208 517.365 75.9576C517.365 71.6886 517.963 67.5508 519.159 63.5445C520.421 59.5381 522.314 55.9258 524.839 52.7076C527.43 49.4237 530.719 46.8294 534.705 44.9248C538.691 43.0201 543.408 42.0678 548.856 42.0678C551.713 42.0678 554.337 42.429 556.729 43.1515C559.187 43.8083 561.18 45.0233 562.708 46.7966C564.236 48.5042 565 50.9672 565 54.1854C565 57.535 564.003 60.4248 562.01 62.8549C560.084 65.285 557.227 67.1896 553.44 68.5689C549.72 69.9481 545.169 70.7691 539.787 71.0318C538.924 71.0318 538.027 71.0318 537.097 71.0318C536.233 71.0318 535.402 71.0318 534.605 71.0318C534.539 71.8199 534.472 72.6409 534.406 73.4947C534.339 74.2828 534.306 75.0053 534.306 75.6621C534.306 78.5519 534.937 80.8178 536.2 82.4597C537.462 84.036 539.654 84.8241 542.777 84.8241C545.368 84.8241 547.926 84.2659 550.45 83.1494C552.975 82.0328 554.868 80.3909 556.131 78.2235C557.061 78.7489 557.692 79.4057 558.024 80.1939C558.423 80.9163 558.622 81.803 558.622 82.8538C558.622 85.4809 557.659 87.8125 555.732 89.8485C553.872 91.8845 551.347 93.4608 548.158 94.5773C545.036 95.6938 541.614 96.2521 537.894 96.2521ZM535.203 66.5985C537.528 66.5985 539.621 66.2701 541.481 65.6133C543.408 64.9566 545.069 64.0371 546.464 62.8549C547.859 61.607 548.922 60.1292 549.653 58.4216C550.384 56.714 550.749 54.8093 550.749 52.7076C550.749 51 550.417 49.6864 549.753 48.7669C549.155 47.7818 548.125 47.2892 546.663 47.2892C545.401 47.2892 544.172 47.7161 542.976 48.5699C541.78 49.4237 540.684 50.6716 539.688 52.3136C538.757 53.9555 537.894 55.9915 537.097 58.4216C536.366 60.786 535.735 63.5116 535.203 66.5985Z" fill="#2D3B2D"/>
<defs>
<clipPath id="clip0_45_5">
<rect width="133" height="133" fill="white"/>
</clipPath>
</defs>
</svg>
