<svg width="621" height="133" viewBox="0 0 621 133" fill="none" xmlns="http://www.w3.org/2000/svg">
<mask id="mask0_35_23" style="mask-type:luminance" maskUnits="userSpaceOnUse" x="0" y="0" width="133" height="133">
<path d="M133 0H0V133H133V0Z" fill="white"/>
</mask>
<g mask="url(#mask0_35_23)">
<path d="M44.8879 73.9258L60.5708 58.2429L21.6683 19.3958C13.0233 28.0408 13.0233 42.0613 21.6683 50.7617L44.8879 73.9258ZM82.4604 63.8954C90.9391 67.83 102.853 65.0592 111.665 56.2479C122.249 45.6633 124.3 30.4792 116.153 22.3329C108.062 14.2421 92.8787 16.2371 82.2387 26.8217C73.4275 35.6329 70.6566 47.5475 74.5912 56.0263L20.5045 110.113L28.3183 117.927L66.5004 79.8554L104.627 117.982L112.44 110.168L74.3141 72.0417L82.4604 63.8954Z" fill="#E8792B"/>
</g>
<path d="M188.98 115.083C184.492 115.083 180.371 114.809 176.617 114.262C172.862 113.805 169.702 113.075 167.138 112.071C164.666 111.158 163.017 110.062 162.193 108.784C163.475 107.872 164.482 106.822 165.215 105.635C166.039 104.357 166.726 102.76 167.276 100.843C167.917 98.8342 168.466 96.3695 168.924 93.4483L177.303 50.1785C178.311 44.5187 180.142 40.2283 182.798 37.3071C185.545 34.3859 189.712 32.9254 195.298 32.9254C198.321 32.9254 200.839 33.5187 202.854 34.7054C204.868 35.8009 206.013 37.2615 206.288 39.0872C203.815 40.0913 202.167 41.8258 201.343 44.2905C200.61 46.7553 199.969 49.2656 199.42 51.8217L197.771 60.0375H201.617C206.929 59.9462 211.141 59.079 214.255 57.4358C217.369 55.7926 219.612 53.6474 220.986 51.0001C222.451 48.3528 223.138 45.5229 223.047 42.5104C223.047 37.3984 220.803 33.4731 216.316 30.7345C211.92 27.9959 205.647 26.6266 197.496 26.6266C193.375 26.6266 189.254 27.1287 185.133 28.1328C181.012 29.137 177.258 30.7345 173.869 32.9254C170.481 35.1162 167.733 37.9461 165.627 41.415C163.612 44.7926 162.605 48.9005 162.605 53.7387C162.514 56.2947 162.742 58.7138 163.292 60.996C163.841 63.1868 164.849 65.6972 166.314 68.5271C165.123 69.6225 163.704 70.4441 162.056 70.9918C160.499 71.5396 159.034 71.8134 157.66 71.8134C154.363 71.8134 151.524 71.0375 149.143 69.4856C146.854 67.9337 145.068 65.8342 143.786 63.1868C142.595 60.5395 142 57.5727 142 54.2864C142 47.6225 144.198 41.5519 148.594 36.0747C153.081 30.5975 159.537 26.2158 167.962 22.9295C176.388 19.6432 186.644 18 198.733 18C204.411 18 209.859 18.4564 215.079 19.3693C220.299 20.1909 224.924 21.5145 228.953 23.3403C232.983 25.0747 236.142 27.4025 238.432 30.3237C240.721 33.1536 241.866 36.6225 241.866 40.7304C241.866 43.9254 241.088 46.9378 239.531 49.7677C238.065 52.5976 236.005 55.108 233.349 57.2989C230.785 59.3985 227.855 61.1329 224.558 62.5022C227.305 63.3238 229.961 64.5561 232.525 66.1993C235.089 67.7512 237.15 69.8964 238.707 72.635C240.355 75.2823 241.133 78.6143 241.042 82.6309C240.95 87.5604 239.76 92.0334 237.47 96.05C235.181 100.067 231.838 103.49 227.442 106.32C223.138 109.15 217.735 111.295 211.233 112.755C204.823 114.307 197.405 115.083 188.98 115.083ZM192.826 105.772C198.412 105.772 203.174 104.768 207.112 102.76C211.05 100.751 214.026 98.0127 216.041 94.5438C218.056 91.0749 219.063 87.2409 219.063 83.0417C219.063 77.9296 217.186 74.3694 213.431 72.3611C209.676 70.2616 203.861 69.1205 195.985 68.9379L191.04 94.4069C190.399 97.6932 189.621 100.204 188.705 101.938C187.881 103.672 186.965 104.859 185.958 105.498C187.056 105.589 188.155 105.681 189.254 105.772C190.445 105.772 191.635 105.772 192.826 105.772Z" fill="#3F3328"/>
<path d="M245.286 114.04L256.064 58.2152L273.393 56.1086L271.703 66.431C273.323 63.0604 275.471 60.4974 278.148 58.7419C280.896 56.9864 284.171 56.1086 287.975 56.1086C292.202 56.1086 295.407 57.1619 297.591 59.2686C299.845 61.3752 300.972 64.3946 300.972 68.327C300.972 72.7509 299.634 76.4023 296.957 79.2814C294.28 82.1604 290.864 83.5999 286.707 83.5999C285.51 83.5999 284.277 83.4595 283.009 83.1786C281.811 82.8275 280.896 82.3008 280.262 81.5986C281.459 80.0538 282.481 78.0174 283.326 75.4895C284.171 72.9615 284.594 70.6794 284.594 68.643C284.594 67.4492 284.383 66.431 283.96 65.5884C283.537 64.6755 282.692 64.2191 281.424 64.2191C280.367 64.2191 279.381 64.5702 278.465 65.2724C277.549 65.9746 276.704 67.0279 275.929 68.4323C275.154 69.8367 274.415 71.5922 273.71 73.6988C273.076 75.7352 272.548 78.1578 272.125 80.9667L267.053 111.934L245.286 114.04Z" fill="#3F3328"/>
<path d="M311.989 114.04C308.467 114.04 305.578 113.163 303.324 111.407C301.07 109.581 299.943 106.843 299.943 103.191C299.943 101.857 300.084 100.102 300.366 97.9249C300.647 95.7481 301 93.4659 301.422 91.0784C301.915 88.6207 302.373 86.3034 302.796 84.1266C303.219 81.9497 303.571 80.1942 303.853 78.86L307.868 58.2152L329.107 56.1086L321.288 96.2396C321.217 96.8014 321.112 97.5036 320.971 98.3462C320.83 99.1889 320.759 99.9613 320.759 100.663C320.759 101.998 321.147 103.227 321.922 104.35C322.697 105.474 323.965 106.106 325.726 106.246C324.88 108.914 323.119 110.881 320.442 112.145C317.765 113.408 314.948 114.04 311.989 114.04ZM321.499 49.7888C318.259 49.7888 315.546 49.0866 313.363 47.6822C311.249 46.2778 310.193 44.2414 310.193 41.573C310.193 38.8344 311.32 36.7278 313.574 35.2532C315.899 33.7083 318.681 32.9359 321.922 32.9359C325.162 32.9359 327.804 33.6732 329.847 35.1478C331.89 36.6225 332.911 38.694 332.911 41.3623C332.911 44.1009 331.819 46.2075 329.635 47.6822C327.452 49.0866 324.739 49.7888 321.499 49.7888Z" fill="#3F3328"/>
<path d="M349.124 133C346.165 133 343.241 132.86 340.353 132.579C337.535 132.368 334.964 131.947 332.639 131.315C330.385 130.683 328.589 129.7 327.25 128.365C325.912 127.031 325.278 125.276 325.348 123.099C325.419 120.36 326.511 118.219 328.624 116.674C330.667 115.199 333.309 114.462 336.549 114.462C339.015 114.462 341.093 114.848 342.783 115.62C344.474 116.463 345.777 117.446 346.693 118.57C345.848 119.202 345.284 119.834 345.002 120.466C344.791 121.098 344.685 121.765 344.685 122.467C344.685 124.082 345.39 125.206 346.799 125.838C348.208 126.54 350.18 126.891 352.716 126.891C354.618 126.891 356.415 126.575 358.105 125.943C359.796 125.311 361.17 124.328 362.226 122.994C363.283 121.659 363.846 119.974 363.917 117.938C363.987 115.901 363.142 114.637 361.381 114.146C359.69 113.654 356.908 113.408 353.033 113.408C348.595 113.408 345.073 113.057 342.466 112.355C339.86 111.723 337.993 110.74 336.866 109.406C335.739 108.002 335.14 106.281 335.07 104.245C335.07 101.506 335.88 99.1186 337.5 97.0823C339.191 94.9756 341.128 93.185 343.312 91.7104C340.564 90.6571 338.416 89.0069 336.866 86.7598C335.316 84.5128 334.541 81.6689 334.541 78.2281C334.541 73.2424 335.845 69.1345 338.451 65.9044C341.128 62.604 344.615 60.1463 348.912 58.5312C353.28 56.9162 358.035 56.1086 363.177 56.1086C365.784 56.1086 367.897 56.2842 369.517 56.6353C371.208 56.9162 372.652 57.2322 373.85 57.5833C375.047 57.9344 376.35 58.1099 377.759 58.1099C380.225 58.1099 382.056 57.3726 383.254 55.898C384.452 54.4233 385.05 52.6678 385.05 50.6314C385.05 48.9461 384.522 47.5417 383.465 46.4182C384.592 45.2245 385.825 44.3467 387.164 43.7849C388.502 43.2232 389.876 42.9423 391.285 42.9423C393.257 42.9423 394.842 43.4338 396.04 44.4169C397.237 45.4 397.836 46.8746 397.836 48.8408C397.836 51.0176 397.167 53.1945 395.828 55.3713C394.56 57.4779 392.799 59.3037 390.545 60.8485C388.291 62.3231 385.614 63.236 382.514 63.5871C383.148 64.6404 383.641 65.7639 383.994 66.9577C384.346 68.1514 384.522 69.4856 384.522 70.9602C384.522 75.8055 383.254 79.9485 380.718 83.3893C378.182 86.8301 374.765 89.4282 370.468 91.1837C366.171 92.9392 361.381 93.817 356.098 93.817C355.323 93.817 354.513 93.817 353.667 93.817C352.822 93.7468 351.941 93.6766 351.026 93.6063C350.673 93.9574 350.356 94.3788 350.075 94.8703C349.793 95.2916 349.652 95.7832 349.652 96.3449C349.652 97.2578 350.286 97.8196 351.554 98.0302C352.892 98.2409 354.865 98.3462 357.471 98.3462H364.445C371.137 98.3462 375.963 99.4697 378.922 101.717C381.951 103.894 383.43 106.948 383.36 110.881C383.289 114.602 382.197 117.832 380.084 120.571C378.041 123.38 375.329 125.697 371.948 127.523C368.566 129.349 364.903 130.718 360.958 131.631C357.013 132.544 353.068 133 349.124 133ZM357.471 88.1291C359.655 88.1291 361.381 87.1812 362.649 85.2852C363.917 83.3893 364.868 81.0369 365.502 78.2281C366.136 75.4192 366.488 72.6455 366.559 69.9069C366.488 67.7301 366.136 65.799 365.502 64.1138C364.868 62.4285 363.6 61.5858 361.698 61.5858C360.148 61.5858 358.774 62.2178 357.577 63.4818C356.45 64.6755 355.464 66.2906 354.618 68.327C353.843 70.2932 353.245 72.3998 352.822 74.6468C352.47 76.8237 352.329 78.9303 352.399 80.9667C352.399 83.0031 352.751 84.7235 353.456 86.1279C354.16 87.4621 355.499 88.1291 357.471 88.1291Z" fill="#3F3328"/>
<path d="M407.122 114.04C403.177 114.04 399.901 113.198 397.295 111.513C394.758 109.757 392.856 107.334 391.588 104.245C390.391 101.155 389.792 97.5036 389.792 93.2903C389.792 87.9536 390.602 83.0382 392.222 78.5441C393.913 74.0499 396.238 70.1176 399.197 66.747C402.155 63.3764 405.607 60.7783 409.552 58.9526C413.497 57.0566 417.723 56.1086 422.232 56.1086C425.895 56.1086 429.664 56.7757 433.538 58.1099L450.128 56.1086L442.52 96.2396C442.45 96.8014 442.344 97.5036 442.203 98.3462C442.062 99.1889 441.992 99.9613 441.992 100.663C441.992 101.998 442.379 103.227 443.154 104.35C443.929 105.474 445.197 106.106 446.958 106.246C446.394 108.002 445.373 109.476 443.894 110.67C442.485 111.793 440.829 112.636 438.927 113.198C437.096 113.76 435.299 114.04 433.538 114.04C431.214 114.04 429.065 113.549 427.093 112.566C425.12 111.583 423.746 110.073 422.972 108.037C421.14 109.862 418.886 111.302 416.209 112.355C413.602 113.479 410.573 114.04 407.122 114.04ZM413.779 107.299C415.61 107.299 417.125 106.597 418.322 105.193C419.59 103.718 420.541 101.963 421.175 99.9262C421.88 97.8898 422.373 95.9587 422.655 94.133L427.938 64.3244C427.022 63.6924 426.071 63.236 425.085 62.9551C424.169 62.604 423.324 62.4285 422.549 62.4285C420.576 62.4285 418.851 63.3062 417.371 65.0617C415.892 66.747 414.624 69.0292 413.567 71.9082C412.581 74.7873 411.771 77.9121 411.137 81.2827C410.573 84.583 410.151 87.8483 409.869 91.0784C409.658 94.3085 409.552 97.1525 409.552 99.6102C409.552 101.436 409.798 103.191 410.292 104.877C410.785 106.492 411.947 107.299 413.779 107.299Z" fill="#3F3328"/>
<path d="M470.377 114.04C466.432 114.04 463.157 113.198 460.55 111.513C458.014 109.757 456.112 107.334 454.844 104.245C453.647 101.155 453.048 97.5036 453.048 93.2903C453.048 87.9536 453.858 83.0382 455.478 78.5441C457.169 74.0499 459.494 70.1176 462.452 66.747C465.411 63.3764 468.828 60.7783 472.702 58.9526C476.647 57.0566 480.909 56.1086 485.488 56.1086C486.967 56.1086 488.517 56.214 490.137 56.4246C491.828 56.5651 493.131 56.8459 494.047 57.2673L512.75 61.1645C511.764 66.431 510.707 71.9784 509.58 77.8067C508.453 83.635 507.185 89.7793 505.776 96.2396C505.705 96.8014 505.6 97.5036 505.459 98.3462C505.318 99.1889 505.247 99.9613 505.247 100.663C505.247 101.998 505.635 103.227 506.41 104.35C507.185 105.474 508.453 106.106 510.214 106.246C509.65 108.002 508.629 109.476 507.149 110.67C505.741 111.793 504.085 112.636 502.183 113.198C500.352 113.76 498.555 114.04 496.794 114.04C494.469 114.04 492.321 113.549 490.348 112.566C488.376 111.583 487.002 110.073 486.227 108.037C484.396 109.862 482.142 111.302 479.465 112.355C476.858 113.479 473.829 114.04 470.377 114.04ZM477.034 107.299C478.866 107.299 480.38 106.597 481.578 105.193C482.846 103.718 483.797 101.963 484.431 99.9262C485.136 97.8898 485.629 95.9587 485.91 94.133L491.194 64.3244C490.278 63.6924 489.327 63.236 488.341 62.9551C487.425 62.604 486.58 62.4285 485.805 62.4285C483.832 62.4285 482.106 63.3062 480.627 65.0617C479.148 66.747 477.88 69.0292 476.823 71.9082C475.837 74.7873 475.027 77.9121 474.393 81.2827C473.829 84.583 473.406 87.8483 473.125 91.0784C472.913 94.3085 472.808 97.1525 472.808 99.6102C472.808 101.436 473.054 103.191 473.547 104.877C474.04 106.492 475.203 107.299 477.034 107.299ZM512.539 62.3231L492.25 61.1645C493.025 57.4428 493.659 54.0371 494.152 50.9474C494.646 47.7875 494.927 44.8382 494.998 42.0997C494.998 40.9059 494.963 39.7824 494.892 38.7291C494.892 37.6055 494.822 36.482 494.681 35.3585C496.16 34.5158 497.956 33.8488 500.07 33.3572C502.183 32.7954 504.226 32.5146 506.198 32.5146C508.875 32.5146 511.2 33.1817 513.172 34.5158C515.145 35.85 516.061 38.2726 515.92 41.7837C515.92 42.837 515.779 44.3467 515.497 46.3129C515.215 48.279 514.828 50.5963 514.335 53.2647C513.842 55.9331 513.243 58.9526 512.539 62.3231Z" fill="#3F3328"/>
<path d="M539.128 114.04C534.76 114.04 530.886 113.268 527.504 111.723C524.123 110.178 521.446 107.791 519.474 104.561C517.572 101.331 516.621 97.1525 516.621 92.0264C516.621 87.462 517.29 83.0382 518.628 78.7547C519.967 74.4713 522.045 70.6443 524.863 67.2737C527.681 63.8329 531.238 61.1294 535.535 59.1632C539.903 57.1268 545.08 56.1086 551.068 56.1086C554.168 56.1086 557.056 56.4597 559.733 57.1619C562.48 57.8641 564.699 59.1983 566.39 61.1645C568.151 63.0604 569.032 65.799 569.032 69.3803C569.032 72.7509 568.045 75.7352 566.073 78.3334C564.171 80.8613 561.212 82.8626 557.197 84.3372C553.252 85.8119 548.25 86.7247 542.192 87.0758C541.347 87.1461 540.466 87.1812 539.55 87.1812C538.635 87.1812 537.719 87.1812 536.803 87.1812C536.733 87.9536 536.662 88.7611 536.592 89.6038C536.521 90.3762 536.486 91.0433 536.486 91.6051C536.486 94.5543 537.12 96.8365 538.388 98.4515C539.727 99.9964 541.981 100.769 545.151 100.769C547.828 100.769 550.54 100.207 553.287 99.0835C556.105 97.8898 558.183 96.2396 559.522 94.133C560.508 94.6948 561.177 95.397 561.529 96.2396C561.952 97.0822 562.163 98.0653 562.163 99.1889C562.163 102.208 561.071 104.842 558.888 107.089C556.704 109.336 553.851 111.056 550.329 112.25C546.877 113.444 543.143 114.04 539.128 114.04ZM537.437 82.6519C539.903 82.6519 542.086 82.2657 543.988 81.4933C545.891 80.6507 547.476 79.5622 548.744 78.2281C550.082 76.8939 551.068 75.2788 551.702 73.3828C552.407 71.4869 552.759 69.4154 552.759 67.1683C552.688 65.4831 552.371 64.1138 551.808 63.0605C551.315 62.0071 550.328 61.4805 548.849 61.4805C547.652 61.4805 546.489 61.9018 545.362 62.7445C544.235 63.5169 543.178 64.7457 542.192 66.431C541.206 68.1163 540.29 70.3283 539.445 73.0669C538.67 75.7352 538.001 78.9303 537.437 82.6519Z" fill="#3F3328"/>
<path d="M590.04 114.251C587.222 114.251 584.404 114.04 581.586 113.619C578.839 113.268 576.303 112.636 573.978 111.723C571.724 110.81 569.928 109.617 568.589 108.142C567.251 106.597 566.581 104.701 566.581 102.454C566.652 100.418 567.18 98.7324 568.166 97.3982C569.082 95.9938 570.421 94.9405 572.182 94.2383C573.943 93.5361 575.951 93.185 578.205 93.185C579.614 93.185 581.058 93.3606 582.537 93.7117C584.087 93.9925 585.355 94.449 586.341 95.081C585.989 96.4152 585.742 97.644 585.601 98.7675C585.531 99.8208 585.496 101.05 585.496 102.454C585.566 104.21 586.165 105.649 587.292 106.773C588.49 107.896 590.075 108.458 592.047 108.458C594.161 108.458 595.851 107.966 597.119 106.983C598.387 106 599.021 104.736 599.021 103.191C599.092 101.366 598.317 99.6804 596.697 98.1355C595.147 96.5907 593.174 95.081 590.779 93.6063C588.455 92.1317 586.059 90.5869 583.594 88.9718C581.551 87.5674 579.684 86.0927 577.993 84.5479C576.373 82.9328 575.07 81.1773 574.084 79.2814C573.098 77.3152 572.604 75.1384 572.604 72.7509C572.675 69.9421 573.52 67.4843 575.14 65.3777C576.761 63.2711 578.909 61.5507 581.586 60.2165C584.263 58.8121 587.222 57.7939 590.462 57.1619C593.703 56.4597 596.978 56.1086 600.289 56.1086C603.6 56.1086 606.841 56.4948 610.011 57.2673C613.251 58.0397 615.893 59.3037 617.936 61.0592C619.979 62.7445 621 65.0617 621 68.011C620.93 71.0305 619.908 73.2775 617.936 74.7522C615.963 76.2268 613.392 76.9641 610.222 76.9641C608.883 76.9641 607.475 76.7885 605.995 76.4374C604.516 76.0863 603.213 75.5948 602.086 74.9628C602.367 74.1202 602.614 73.2073 602.825 72.2242C603.037 71.2411 603.177 70.2229 603.248 69.1696C603.318 66.9226 602.825 65.132 601.769 63.7978C600.712 62.3934 599.162 61.656 597.119 61.5858C595.569 61.5858 594.196 62.0423 592.998 62.9551C591.801 63.7978 591.167 65.0968 591.096 66.8524C591.026 68.4674 591.589 70.0123 592.787 71.4869C594.055 72.9615 595.675 74.4011 597.648 75.8055C599.69 77.1396 601.839 78.4738 604.093 79.808C606.559 81.2826 608.778 82.8275 610.75 84.4426C612.723 85.9874 614.273 87.7429 615.4 89.7091C616.597 91.605 617.196 93.8872 617.196 96.5556C617.126 99.9262 616.034 102.946 613.92 105.614C611.807 108.282 608.743 110.389 604.727 111.934C600.712 113.408 595.816 114.181 590.04 114.251Z" fill="#3F3328"/>
</svg>
